<svg xmlns="http://www.w3.org/2000/svg" xml:space="preserve" viewBox="0 0 512 512"><path d="M115 0h282c63.5 0 115 51.5 115 115v282c0 63.5-51.5 115-115 115H115C51.5 512 0 460.5 0 397V115C0 51.5 51.5 0 115 0" style="fill:#161513"/><path d="M122.7 220.6c60.8-8.1 165.6-13.8 219.8-10.7 18 .4 20.8 23.4 17.4 41.1-2.1 24.7 1.4 40.5-8.3 49.6-89.7 11.1-177.1 15.2-235.8 10.2-16.1-3.4-21.4-40.9-18.2-63 2.5-15.8 7.2-24.5 25.1-27.2" style="opacity:.9;fill:#7e7028"/><path d="M318 403.7c-8.3 0-16-1.7-23.1-5.2s-13.9-9.1-20.5-16.9-13.2-18-19.9-30.6c-4 1-8.1 1.7-12.5 2.2s-8.8.7-13.3.7c-20.2 0-37.5-4.2-51.9-12.5-14.3-8.4-25.3-20-32.8-34.9s-11.3-32-11.3-51.3q0-33.45 12.6-57t35.1-36.3c22.5-12.75 32.5-12.7 52.4-12.7q27.9 0 48.9 11.7c14 7.8 25 19 33 33.5 7.9 14.5 11.9 32 11.9 52.5 0 19.7-3.5 37.5-10.6 53.1-7.1 15.7-17.4 28.2-30.9 37.6 6 8.8 11.4 15.6 16.2 20.5s9.4 8.4 13.7 10.5 8.8 3.2 13.3 3.2c6.5 0 12.4-.9 17.7-2.8s11-4.9 16.9-9.2l8.2 11.4c-5.2 7.3-10.7 13.3-16.4 18.1s-11.6 8.4-17.6 10.8-12.1 3.6-19.1 3.6m-86.1-73.5c2.2 0 4.3-.1 6.3-.2 2.1-.1 3.6-.4 4.6-1q-4.65-9.3-9-16.2c-2.8-4.6-5.7-8.4-8.5-11.5-2.8-3-5.6-5.3-8.3-6.7s-5.7-2.1-8.8-2.1c-4 0-7.7.8-10.9 2.4-3.3 1.6-6.3 3.9-9.2 7.1 3 6 6.6 11.1 10.7 15.2s9 7.4 14.5 9.6 11.8 3.4 18.6 3.4m35.1-19.6c4.8-6 8.5-14 11-23.9 2.6-10 3.9-21.6 3.9-34.7 0-13-1.2-24.4-3.7-34.2s-6-18-10.6-24.6-10.2-11.6-16.7-14.9c-6.6-3.3-14-5-22.3-5q-11.85 0-21.3 4.5c-9.45 4.5-11.6 7.6-16 13.7-4.4 6.2-7.8 14.1-10.1 23.7s-3.5 21.1-3.5 34.4c0 7.4.5 13.9 1.4 19.7s2.3 11.3 4 16.7c4.7-4.5 9.6-7.9 14.7-10.1 5.1-2.3 10.8-3.4 17.2-3.4 6.2 0 12.1 1.4 17.8 4.2s11.3 7 17 12.7c5.7 5.4 11.4 12.5 17.2 21.2" style="fill:#fcfcfc"/><path d="M386 303c-7.4 0-14 3.2-18.6 8.2 11-16.3 18.5-34.1 21.7-51.8 4.1-22.3 1.4-44.4-7.3-63.5 1.9-1.6 2.5-4.2 1.4-6.5-27.8-59.5-82.9-89.5-147.5-80.2-30.3 4.6-60.2 15-86.6 30.2-26.8 15.4-48.6 35-63.2 56.8-18.8 28-25 58.5-17.8 88.3l.1.2c10.3 35.8 39.2 66.9 79.4 85.4 24.7 11.3 51.5 17 78.1 17 25.3 0 50.4-5.2 73.1-15.6l.4-.2c25.7-14.3 46.6-31.7 62.2-51.9.8-1 1.6-2.1 2.4-3.2-1.9 3.5-2.9 7.5-2.9 11.8 0 13.8 11.2 25 25 25s25-11.2 25-25-11.1-25-24.9-25m-91.8 58.6c-43.5 19.9-96.5 19.3-141.8-1.5-37.2-17.1-64-45.6-73.4-78.3-6.4-26.6-.8-54.1 16.3-79.4 27.6-41.1 83.5-73.3 142.3-82.2 51.1-7.4 95.8 12 123.6 52.4l-.9.6c-2.3 2-2.6 5.4-.6 7.8 17.1 20.2 24 48.1 18.8 76.5-7.6 41.1-37.5 78-84.3 104.1" style="fill:#a3524a"/><path d="M118 428.5c-2.3 0-4.2-1.7-4.5-4-.3-2.5 1.5-4.7 4-5 34.5-3.9 76.1-3.3 116.3-2.7 41.5.6 84.4 1.3 117.6-3.3 2.5-.3 4.7 1.4 5.1 3.8.3 2.5-1.4 4.7-3.8 5.1-33.9 4.7-77.1 4-119 3.4-39.9-.6-81.2-1.2-115.1 2.6-.3.1-.4.1-.6.1" style="opacity:.85;fill:#8f8a80"/></svg>